<?xml version="1.0" encoding="UTF-8" standalone="no"?>
<svg
   version="1.1"
   viewBox="-5.0 -10.0 110.0 135.0"
   id="svg8"
   sodipodi:docname="progress.svg"
   inkscape:version="1.2.2 (732a01da63, 2022-12-09)"
   xmlns:inkscape="http://www.inkscape.org/namespaces/inkscape"
   xmlns:sodipodi="http://sodipodi.sourceforge.net/DTD/sodipodi-0.dtd"
   xmlns="http://www.w3.org/2000/svg"
   xmlns:svg="http://www.w3.org/2000/svg">
  <defs
     id="defs12" />
  <sodipodi:namedview
     id="namedview10"
     pagecolor="#ffffff"
     bordercolor="#000000"
     borderopacity="0.25"
     inkscape:showpageshadow="2"
     inkscape:pageopacity="0.0"
     inkscape:pagecheckerboard="0"
     inkscape:deskcolor="#d1d1d1"
     showgrid="false"
     inkscape:zoom="1.7481481"
     inkscape:cx="-37.46822"
     inkscape:cy="67.5"
     inkscape:window-width="1920"
     inkscape:window-height="1137"
     inkscape:window-x="1912"
     inkscape:window-y="-8"
     inkscape:window-maximized="1"
     inkscape:current-layer="svg8" />
  <path
     d="m80.852 26.609c-5.4414 5.2383-10.801 10.57-16.129 15.922l-4 4.0195-0.96875 0.96875c-0.23047 0.23047-0.48828 0.42969-0.76172 0.60938-0.55078 0.35156-1.1602 0.57812-1.8008 0.67969-1.3008 0.21094-2.6484-0.12891-3.6719-0.94141-0.12891-0.10156-0.25-0.21094-0.37109-0.32031l-0.46875-0.46094-1-1-2-2.0117-3.9805-4.0312c-1.6719-1.75-4.1992-2.8594-6.6914-2.8008-1.25 0-2.5 0.26953-3.6602 0.78125-0.28906 0.12109-0.57812 0.26172-0.85156 0.42187-0.28125 0.14844-0.55078 0.32031-0.80078 0.51172-0.26172 0.17969-0.51172 0.37109-0.73828 0.58984l-0.35156 0.30859-0.26172 0.23828-4.1211 3.8906c-5 4.6719-10.102 9.2383-15.328 13.66 0.03125-1.4297 0.050781-2.8516 0.078125-4.2812 0.26172-10.891 0.67969-21.77 1.3594-32.648 0.32031-5.0703 0.69922-12.441-4.3008-12.27-4.1016 0.14063-3.6406 7.0898-3.6602 11.781-0.039063 10.648 0.078125 21.309 0.21094 31.961l0.19141 15.98 0.078124 8.0781c0.070313 3.4609 1.3984 6.8711 3.5898 9.5312 2.3008 2.7812 5.6094 4.7109 9.1719 5.3594 0.44922 0.070312 0.89062 0.14844 1.3398 0.19141l1.3516 0.070313h2.1094 4.1797 16.711l33.41-0.019532c3.6719 0 9.1094 0.98047 9.3398-2.6992 0.25-3.9688-5.4414-2.8594-8.9219-2.9102-10.891-0.14062-21.781-0.16016-32.68-0.14844l-16.34 0.03125h-4.0898-2.0391-1.0195-0.51172l-0.42969-0.019532c-2.2383-0.050781-4.4102-0.96094-6.0898-2.4297-1.6914-1.4609-2.8086-3.5391-3.1602-5.7305-0.10938-0.55078-0.10938-1.1016-0.14063-1.6719l0.058594-6.1172c0-0.42969 0.011719-0.87109 0.019532-1.3008 1.4219-0.87109 2.7617-2.3711 3.9219-3.5 5.25-5.1992 10.391-10.512 15.531-15.828l3.8516-3.9883 0.92969-0.96094c0.14844-0.14844 0.30859-0.28906 0.48828-0.42188 0.35156-0.23828 0.75-0.41016 1.1797-0.5 0.85938-0.17969 1.8008 0.011718 2.5117 0.51953 0.089844 0.058594 0.17969 0.12109 0.26172 0.21094l0.12891 0.10938 0.23047 0.23047 0.98828 0.96875 6.0625 6.0625 0.28125 0.26953c0.12891 0.12109 0.26172 0.25 0.39844 0.37109 0.26953 0.23828 0.55859 0.46875 0.85156 0.67969 0.58984 0.42969 1.2305 0.78906 1.8984 1.0898 1.3398 0.58984 2.8086 0.89063 4.2617 0.87891 1.4492 0 2.9219-0.30859 4.2617-0.91016 0.67188-0.30078 1.3086-0.67187 1.8984-1.1016 0.28906-0.21094 0.57812-0.44922 0.85156-0.69141l0.39844-0.37109 4.3633-4.3633 16.371-16.41c0.80078-0.80078 1.8984-1.6289 2.6602-2.5508 0 0.25-0.019531 0.53906-0.03125 0.80078l-0.058594 1.4492-0.16016 2.8984c-0.26172 3.8711-0.67969 7.7383-1.3594 11.602-0.32031 1.8008-0.69922 4.4219 4.3008 4.3594 4.1016-0.050781 3.6406-2.5195 3.6602-4.1914 0.039063-3.7891-0.078125-7.5703-0.21094-11.359l-0.19141-5.6797c-0.019532-2.7812-1.1992-5.6406-3.1719-7.6289-1.0312-1.0586-2.2695-1.8984-3.6484-2.4609-0.69141-0.28125-1.3984-0.48828-2.1289-0.62109-0.35938-0.050781-0.73047-0.12891-1.1016-0.14062l-0.55078-0.03125c-0.19141 0-0.37891-0.019531-0.48047-0.011719h-5.9414l-11.879 0.019532c-1.3008 0-3.2383-0.98047-3.3203 2.6992-0.089843 3.9805 1.9297 2.8594 3.1719 2.9102 3.8711 0.14063 7.7383 0.16016 11.609 0.14844l5.8086-0.03125h0.71875l0.51172 0.019531 0.5 0.078125 0.48828 0.12891c0.16016 0.050782 0.30078 0.12891 0.44922 0.19141-1.2891 0.58984-2.4102 2.2188-3.4297 3.2109z"
     id="path2"
     style="fill:#75aadb;fill-opacity:1" />
</svg>
